<?xml version="1.0" encoding="UTF-8" standalone="no"?>
<!-- Created with Inkscape (http://www.inkscape.org/) -->

<svg
   width="400"
   height="400"
   viewBox="0 0 105.83333 105.83333"
   version="1.1"
   id="svg1"
   inkscape:version="1.4.2 (ebf0e940, 2025-05-08)"
   sodipodi:docname="Axis.svg"
   inkscape:export-filename="Axis.png"
   inkscape:export-xdpi="96"
   inkscape:export-ydpi="96"
   xmlns:inkscape="http://www.inkscape.org/namespaces/inkscape"
   xmlns:sodipodi="http://sodipodi.sourceforge.net/DTD/sodipodi-0.dtd"
   xmlns="http://www.w3.org/2000/svg"
   xmlns:svg="http://www.w3.org/2000/svg">
  <sodipodi:namedview
     id="namedview1"
     pagecolor="#ffffff"
     bordercolor="#666666"
     borderopacity="1.0"
     inkscape:showpageshadow="2"
     inkscape:pageopacity="0.0"
     inkscape:pagecheckerboard="0"
     inkscape:deskcolor="#d1d1d1"
     inkscape:document-units="mm"
     showguides="true"
     showgrid="true"
     inkscape:zoom="1.3357521"
     inkscape:cx="144.11357"
     inkscape:cy="111.54765"
     inkscape:window-width="1792"
     inkscape:window-height="1067"
     inkscape:window-x="0"
     inkscape:window-y="25"
     inkscape:window-maximized="0"
     inkscape:current-layer="layer1"
     inkscape:export-bgcolor="#ffffff00">
    <sodipodi:guide
       position="57.942136,52.601937"
       orientation="0,-1"
       id="guide1"
       inkscape:locked="false" />
    <sodipodi:guide
       position="100.16298,-38.721801"
       orientation="1,0"
       id="guide2"
       inkscape:locked="false" />
    <sodipodi:guide
       position="52.603294,105.83333"
       orientation="1,0"
       id="guide3"
       inkscape:locked="false" />
    <inkscape:grid
       id="grid3"
       units="px"
       originx="0"
       originy="0"
       spacingx="1.3229166"
       spacingy="1.3229166"
       empcolor="#0099e5"
       empopacity="0.30196078"
       color="#0099e5"
       opacity="0.14901961"
       empspacing="10"
       enabled="true"
       visible="true"
       dotted="false" />
  </sodipodi:namedview>
  <defs
     id="defs1">
    <inkscape:path-effect
       effect="spiro"
       id="path-effect30"
       is_visible="true"
       lpeversion="1" />
    <inkscape:path-effect
       effect="spiro"
       id="path-effect29"
       is_visible="true"
       lpeversion="1" />
    <inkscape:path-effect
       effect="spiro"
       id="path-effect28"
       is_visible="true"
       lpeversion="1" />
    <inkscape:path-effect
       effect="spiro"
       id="path-effect27"
       is_visible="true"
       lpeversion="1" />
    <inkscape:path-effect
       effect="spiro"
       id="path-effect26"
       is_visible="true"
       lpeversion="1" />
    <inkscape:path-effect
       effect="spiro"
       id="path-effect25"
       is_visible="true"
       lpeversion="1" />
    <inkscape:path-effect
       effect="spiro"
       id="path-effect24"
       is_visible="true"
       lpeversion="1" />
    <inkscape:path-effect
       effect="spiro"
       id="path-effect23"
       is_visible="true"
       lpeversion="1" />
    <inkscape:path-effect
       effect="spiro"
       id="path-effect22"
       is_visible="true"
       lpeversion="1" />
    <inkscape:path-effect
       effect="spiro"
       id="path-effect21"
       is_visible="true"
       lpeversion="1" />
    <inkscape:path-effect
       effect="spiro"
       id="path-effect20"
       is_visible="true"
       lpeversion="1" />
    <inkscape:path-effect
       effect="spiro"
       id="path-effect19"
       is_visible="true"
       lpeversion="1" />
    <inkscape:path-effect
       effect="spiro"
       id="path-effect18"
       is_visible="true"
       lpeversion="1" />
  </defs>
  <g
     inkscape:label="Layer 1"
     inkscape:groupmode="layer"
     id="layer1">
    <path
       style="fill:none;stroke:#ff0003;stroke-width:0.95375017;stroke-linecap:butt;stroke-linejoin:miter;stroke-dasharray:none;stroke-opacity:1"
       d="m 26.083575,12.904506 c -0.03318,0.181033 -0.03318,0.368094 0,0.549127 0.02807,0.15315 0.07966,0.302358 0.09152,0.457607 0.01292,0.169089 -0.02181,0.337628 -0.04231,0.505966 -0.0205,0.168338 -0.02563,0.345387 0.04231,0.500768 0.02734,0.06253 0.06584,0.119811 0.09152,0.183043 0.03179,0.07828 0.04308,0.163608 0.04429,0.248093 0.0012,0.08449 -0.0072,0.168786 -0.01596,0.252825 -0.01751,0.168078 -0.02833,0.33683 -0.02833,0.505817 v 2.013468 6.406493 3.111725 c 0,0.244458 0.0075,0.488838 0.01978,0.73299 0.01224,0.244151 0.02524,0.491073 -0.01978,0.731349 -0.02317,0.12366 -0.06193,0.243802 -0.09152,0.366086 -0.137113,0.566684 -0.07405,1.160591 0,1.738905 0.02731,0.213258 0.05564,0.432974 0,0.640649 -0.02497,0.09322 -0.06633,0.181407 -0.09152,0.274566 -0.06023,0.222717 -0.02503,0.458625 0.0079,0.68698 0.03294,0.228355 0.06254,0.466141 -0.0079,0.68584 -0.02951,0.09202 -0.07618,0.179152 -0.09152,0.274563 -0.0097,0.06031 -0.0069,0.121859 -0.0043,0.182891 0.0026,0.06103 0.0043,0.122105 0.0043,0.183194 v 1.189776 1.2813 c 0,0.07663 0.004,0.153181 0.01045,0.229535 0.0065,0.07635 0.01314,0.155166 -0.01045,0.22807 -0.02103,0.065 -0.06533,0.119947 -0.09152,0.183044 -0.02357,0.05677 -0.03196,0.118864 -0.03286,0.180325 -8.96e-4,0.06146 0.0053,0.122783 0.01184,0.183907 0.01299,0.122247 0.02102,0.245004 0.02102,0.367939 v 1.738905"
       id="path23"
       inkscape:path-effect="#path-effect23"
       inkscape:original-d="m 26.083575,12.904506 c 0.15046,0.17059 -0.03009,0.368575 0,0.549127 0.02557,0.15344 0.06952,0.303614 0.09152,0.457607 0.0456,0.319219 -0.07816,0.694095 0,1.006734 0.01655,0.06618 0.07498,0.116864 0.09152,0.183043 0.06427,0.257096 0,0.734931 0,1.006735 0,0.671156 0,1.342312 0,2.013468 0,2.135498 0,4.270995 0,6.406493 0,1.037241 0,2.074482 0,3.111725 0,0.476343 0.05887,0.993402 0,1.464339 -0.0156,0.124815 -0.07763,0.241073 -0.09152,0.366086 -0.06238,0.561464 0,1.1728 0,1.738905 0,0.21355 0.0302,0.429247 0,0.640649 -0.01364,0.0955 -0.0726,0.179967 -0.09152,0.274566 -0.088,0.440005 0.088,0.932812 0,1.37282 -0.01892,0.0946 -0.0726,0.179964 -0.09152,0.274563 -0.02393,0.119658 0,0.244057 0,0.366085 0,0.396592 0,0.793184 0,1.189776 0,0.427101 0,0.854199 0,1.2813 0,0.152535 0.037,0.309624 0,0.457605 -0.01655,0.06618 -0.07498,0.116864 -0.09152,0.183044 -0.05136,0.205444 0,0.521989 0,0.732171 0,0.579633 0,1.159269 0,1.738905"
       inkscape:export-filename="path23.png"
       inkscape:export-xdpi="96"
       inkscape:export-ydpi="96"
       transform="matrix(3.1454778,0,0,3.1454778,-29.594618,-29.299373)" />
    <path
       style="fill:none;stroke:#ff0000;stroke-width:0.99866003;stroke-linecap:butt;stroke-linejoin:miter;stroke-dasharray:none;stroke-opacity:1"
       d="m 13.179069,26.175096 c 0.610137,0.0032 1.22029,0.0032 1.830427,0 3.356751,-0.01758 6.71798,-0.131737 10.067345,0.09152 1.926471,0.128412 3.843597,0.368146 5.765842,0.549127 1.218396,0.114713 2.439001,0.205832 3.660854,0.274564 0.335444,0.01887 0.672695,0.03601 1.006734,0 0.339226,-0.03657 0.670106,-0.127422 1.006734,-0.183042 0.695233,-0.114871 1.408128,-0.07851 2.104991,-0.183044 0.122189,-0.01833 0.244043,-0.041 0.367415,-0.04773 0.123373,-0.0067 0.249557,0.0031 0.364756,0.04773 0.06365,0.02468 0.122755,0.0595 0.183041,0.09152 0.101917,0.05414 0.210458,0.101281 0.325488,0.110563 0.05751,0.0046 0.116145,-4.48e-4 0.170979,-0.01841 0.05483,-0.01796 0.105772,-0.04909 0.144182,-0.09215 0.01448,-0.01623 0.02711,-0.03403 0.04139,-0.05045 0.01428,-0.01641 0.03052,-0.03165 0.05013,-0.04107 0.02844,-0.01366 0.06308,-0.01366 0.09152,0 0.127126,9.42e-4 0.254359,-0.03087 0.366086,-0.09152 0.06014,-0.03265 0.116918,-0.07392 0.183041,-0.09152 0.05924,-0.01577 0.121799,-0.01134 0.182781,-0.0051 0.06098,0.0062 0.122678,0.01418 0.183304,0.0051 0.06859,-0.01027 0.133672,-0.04281 0.183042,-0.09152"
       id="path24"
       inkscape:path-effect="#path-effect24"
       inkscape:original-d="m 13.179069,26.175096 c 0.610125,0.0041 1.220305,-0.005 1.830427,0 3.355805,0.02773 6.7127,-0.001 10.067345,0.09152 0.911384,0.02514 4.66109,0.419156 5.765842,0.549127 2.903958,0.341644 1.188719,0.274564 3.660854,0.274564 0.335576,0 0.672534,0.03038 1.006734,0 0.339677,-0.03088 0.668287,-0.140737 1.006734,-0.183042 0.698873,-0.08736 1.402239,-0.136194 2.104991,-0.183044 0.243515,-0.01624 0.492853,-0.04786 0.732171,0 0.06689,0.01339 0.116149,0.07815 0.183041,0.09152 0.05635,0.01127 0.552101,0.04428 0.640649,0 0.03859,-0.01929 0.05293,-0.07223 0.09152,-0.09152 0.02729,-0.01365 0.06258,0.0097 0.09152,0 0.518531,-0.259265 -0.136432,0.03411 0.366086,-0.09152 0.06618,-0.01654 0.116861,-0.07498 0.183041,-0.09152 0.118385,-0.0296 0.25032,0.03859 0.366085,0 0.339281,-0.113094 -0.111559,-0.09152 0.183042,-0.09152"
       transform="matrix(2.8503927,0,0,3.1659385,-25.693782,-29.844051)" />
    <path
       style="fill:none;stroke:#ff0000;stroke-width:0.95375017;stroke-linecap:butt;stroke-linejoin:miter;stroke-dasharray:none;stroke-opacity:1"
       d="m 23.612499,36.608527 c 0.293105,0.565316 0.663732,1.090371 1.098256,1.555862 0.117782,0.126176 0.240212,0.247981 0.366086,0.366085 0.164835,0.154661 0.336559,0.304028 0.475731,0.482134 0.139172,0.178106 0.245557,0.390352 0.256439,0.616122 0.0035,0.07168 -0.0027,0.143443 -0.0032,0.215201 -4.89e-4,0.07176 0.005,0.144785 0.03062,0.211811 0.01282,0.03351 0.03066,0.06526 0.05409,0.09244 0.02343,0.02718 0.05253,0.0497 0.08549,0.06389 0.03296,0.01418 0.06981,0.01983 0.105265,0.01435 0.03546,-0.0055 0.06935,-0.02233 0.09384,-0.04856 0.0333,-0.03567 0.04709,-0.08508 0.05605,-0.133038 0.009,-0.04796 0.01451,-0.09746 0.03547,-0.141525 0.0187,-0.03932 0.04879,-0.07218 0.08149,-0.100922 0.0327,-0.02875 0.06835,-0.05396 0.101556,-0.08212 0.1686,-0.143009 0.264547,-0.353321 0.333662,-0.563323 0.06912,-0.210002 0.117347,-0.428337 0.215465,-0.626455 0.130637,-0.263779 0.343447,-0.478357 0.572864,-0.662783 0.229417,-0.184427 0.478409,-0.34333 0.708436,-0.526995 0.30392,-0.242666 0.572479,-0.526795 0.82369,-0.823691 0.126192,-0.149142 0.248283,-0.301754 0.366086,-0.457607"
       id="path26"
       inkscape:path-effect="#path-effect26"
       inkscape:original-d="m 23.612499,36.608527 c 0.499527,0.417762 0.711319,1.058371 1.098256,1.555862 0.105951,0.13622 0.253776,0.235058 0.366086,0.366085 0.278908,0.325395 0.497333,0.746001 0.73217,1.098256 0.05014,0.07521 0.250073,0.549127 0.366085,0.549127 0.147301,0 0.07365,-0.238823 0.09152,-0.274563 0.03859,-0.07718 0.149052,-0.103733 0.183042,-0.183042 0.41788,-0.975053 -0.490308,0.109517 0.549127,-1.189778 0.37669,-0.47086 0.842404,-0.787456 1.2813,-1.189778 0.286232,-0.262377 0.570995,-0.528879 0.82369,-0.823691 0.140531,-0.163951 0.21703,-0.308551 0.366086,-0.457607"
       transform="matrix(3.1454778,0,0,3.1454778,-29.594618,-29.299373)" />
    <path
       style="fill:none;stroke:#ff0000;stroke-width:0.95375017;stroke-linecap:butt;stroke-linejoin:miter;stroke-dasharray:none;stroke-opacity:1"
       d="m 15.467102,23.337935 c -0.305145,0.529347 -0.751951,0.976153 -1.281298,1.281299 -0.09556,0.05509 -0.195049,0.1066 -0.274564,0.183043 -0.06234,0.05994 -0.111524,0.134418 -0.183043,0.183042 -0.05648,0.0384 -0.123428,0.0582 -0.183042,0.09152 -0.09466,0.0529 -0.167003,0.137471 -0.234813,0.222091 -0.06781,0.08462 -0.134596,0.172427 -0.222794,0.235515 -0.05477,0.03918 -0.116609,0.06789 -0.170081,0.108816 -0.02674,0.02046 -0.05138,0.04408 -0.07027,0.07195 -0.01889,0.02787 -0.03187,0.06021 -0.03422,0.0938 -0.0021,0.03047 0.0044,0.06129 0,0.09152 -0.0034,0.02313 -0.01342,0.04546 -0.02959,0.06234 -0.01617,0.01688 -0.03859,0.02799 -0.06193,0.02918 -0.01543,7.87e-4 -0.03071,-0.0026 -0.04604,-0.0045 -0.01533,-0.0019 -0.03154,-0.0021 -0.04548,0.0045 -0.01008,0.0048 -0.01839,0.01308 -0.02357,0.02298 -0.0052,0.0099 -0.0072,0.02134 -0.0062,0.03245 0.0011,0.01111 0.0052,0.02187 0.01152,0.03106 0.0063,0.0092 0.01486,0.01682 0.02451,0.02242 0.01931,0.01121 0.04275,0.01412 0.06482,0.01073 0.02207,-0.0034 0.04288,-0.01273 0.06181,-0.02458 0.03784,-0.0237 0.06871,-0.05731 0.106535,-0.08104 0.01891,-0.01186 0.03972,-0.02123 0.06178,-0.02465 0.02206,-0.0034 0.04551,-5.5e-4 0.06484,0.01062 0.01881,0.01087 0.03248,0.0286 0.04568,0.04585 0.0132,0.01725 0.02695,0.03494 0.04584,0.04566 0.01349,0.0077 0.02898,0.01133 0.04446,0.0123 0.01548,9.78e-4 0.03101,-6.49e-4 0.04633,-0.003 0.03064,-0.0048 0.06143,-0.01272 0.09226,-0.0093 0.03416,0.0038 0.06516,0.02135 0.09392,0.04017 0.02876,0.01883 0.05683,0.03958 0.08912,0.05135 0.04333,0.01579 0.09093,0.01418 0.136783,0.0093 0.04585,-0.0049 0.09182,-0.01292 0.137781,-0.0093 0.0608,0.0048 0.118747,0.03011 0.16863,0.0652 0.04988,0.03509 0.0923,0.07975 0.131421,0.126542 0.07824,0.09358 0.147019,0.199061 0.249077,0.265868 0.05713,0.03739 0.122072,0.06079 0.183043,0.09152 0.156783,0.07902 0.287729,0.208973 0.366085,0.366086 0.03048,0.06111 0.05336,0.126407 0.09152,0.183044 0.04836,0.07178 0.118364,0.125526 0.183043,0.183041 0.197711,0.175811 0.353926,0.397237 0.457607,0.640649 0.0268,0.06293 0.05065,0.128197 0.09152,0.183044 0.05163,0.06929 0.126986,0.117281 0.183043,0.183042 0.04469,0.05242 0.07639,0.115837 0.09152,0.183044"
       id="path27"
       inkscape:path-effect="#path-effect27"
       inkscape:original-d="m 15.467102,23.337935 c -0.463155,0.38202 -0.812534,0.906288 -1.281298,1.281299 -0.08589,0.06871 -0.188672,0.114329 -0.274564,0.183043 -0.06738,0.0539 -0.114013,0.13127 -0.183043,0.183042 -0.05457,0.04093 -0.12847,0.05059 -0.183042,0.09152 -0.163151,0.122362 -0.311771,0.31177 -0.457607,0.457606 -0.07425,0.07425 -0.22794,0.181316 -0.274564,0.274564 -0.01364,0.02729 0.01364,0.06424 0,0.09152 -0.01929,0.03859 -0.05293,0.07223 -0.09152,0.09152 -0.02729,0.01364 -0.09152,-0.03051 -0.09152,0 0,0.0099 0.340228,-0.01293 0.366085,0 0.03859,0.01929 0.05059,0.07788 0.09152,0.09152 0.05788,0.01929 0.12385,-0.0148 0.183043,0 0.06618,0.01654 0.116151,0.07814 0.183042,0.09152 0.08974,0.01795 0.189589,-0.03399 0.274564,0 0.0083,0.0033 0.517353,0.433774 0.549128,0.457608 0.05457,0.04093 0.12847,0.05059 0.183043,0.09152 0.138059,0.103545 0.26254,0.228026 0.366085,0.366086 0.04093,0.05457 0.05059,0.128471 0.09152,0.183044 0.05177,0.06903 0.12914,0.115662 0.183043,0.183041 0.155999,0.195001 0.320269,0.434645 0.457607,0.640649 0.03784,0.05676 0.05368,0.126286 0.09152,0.183044 0.04786,0.07179 0.144454,0.105865 0.183043,0.183042 0.134664,0.269329 -0.212017,-0.120494 0.09152,0.183044"
       transform="matrix(3.1454778,0,0,3.1454778,-29.594618,-29.299373)" />
    <path
       style="fill:none;stroke:#ff0000;stroke-width:0.95375017;stroke-linecap:butt;stroke-linejoin:miter;stroke-dasharray:none;stroke-opacity:1"
       d="m 39.079601,23.154893 c 0.499179,0.621484 0.929724,1.298055 1.2813,2.013469 0.04888,0.09947 0.09859,0.202794 0.183042,0.274564 0.08403,0.07142 0.19602,0.105633 0.274563,0.183042 0.07855,0.07742 0.114084,0.188488 0.183044,0.274564 0.0406,0.05068 0.09186,0.09154 0.141468,0.133434 0.04961,0.0419 0.09869,0.08606 0.133095,0.14113 0.03618,0.05792 0.05463,0.12558 0.09152,0.183043 0.0393,0.06122 0.09758,0.107811 0.158302,0.147872 0.06072,0.04006 0.125022,0.07483 0.182997,0.11877 0.05798,0.04394 0.110352,0.09865 0.136978,0.166345 0.01331,0.03385 0.01987,0.07058 0.01697,0.10684 -0.0029,0.03626 -0.01548,0.07198 -0.03764,0.100821 -0.01987,0.02587 -0.04696,0.04572 -0.07655,0.05945 -0.02959,0.01373 -0.06167,0.02153 -0.09402,0.02576 -0.06469,0.0085 -0.130359,0.0029 -0.195514,0.0063 -0.138729,0.0073 -0.273005,0.0555 -0.394413,0.123017 -0.121408,0.06752 -0.231103,0.154051 -0.337755,0.243068 -0.497275,0.41505 -0.939655,0.891243 -1.37282,1.37282 -0.144435,0.160578 -0.288899,0.322759 -0.457608,0.457607 -0.08603,0.06876 -0.178003,0.130079 -0.274563,0.183042"
       id="path28"
       inkscape:path-effect="#path-effect28"
       inkscape:original-d="m 39.079601,23.154893 c 0.390112,0.694957 0.83993,1.351415 1.2813,2.013469 0.06101,0.09152 0.105265,0.196785 0.183042,0.274564 0.07778,0.07778 0.196786,0.105264 0.274563,0.183042 0.07778,0.07778 0.114329,0.188673 0.183044,0.274564 0.08085,0.101069 0.202769,0.166871 0.274563,0.274564 0.03784,0.05676 0.05059,0.12847 0.09152,0.183043 0.06198,0.08264 0.542428,0.555828 0.457605,0.640648 -0.172842,0.172844 -0.172759,0.04319 -0.366085,0.09152 -0.19454,0.04864 -0.587166,0.239207 -0.732168,0.366085 -0.483545,0.423101 -0.91825,0.91825 -1.37282,1.37282 -0.135467,0.135467 -0.304417,0.342712 -0.457608,0.457607 -0.443264,0.332447 0.0054,-0.09689 -0.274563,0.183042"
       transform="matrix(3.1454778,0,0,3.1454778,-37.079452,-29.875131)" />
    <path
       style="fill:none;stroke:#ff0000;stroke-width:0.95375017;stroke-linecap:butt;stroke-linejoin:miter;stroke-dasharray:none;stroke-opacity:1"
       d="m 23.154893,16.290794 c 0.0341,-0.133173 0.09696,-0.258903 0.183042,-0.366085 0.108766,-0.135431 0.251343,-0.23869 0.386601,-0.347671 0.135259,-0.108981 0.267849,-0.229158 0.34557,-0.3845 0.03057,-0.06109 0.05233,-0.127083 0.09152,-0.183042 0.03726,-0.05321 0.08847,-0.09477 0.138615,-0.136072 0.05014,-0.0413 0.100686,-0.08394 0.135949,-0.138492 0.03707,-0.05735 0.0554,-0.125091 0.09152,-0.183043 0.058,-0.09305 0.155678,-0.152294 0.245911,-0.214581 0.04512,-0.03114 0.08942,-0.06405 0.127239,-0.103737 0.03782,-0.03968 0.06915,-0.08665 0.08446,-0.139288 0.01,-0.03432 0.01303,-0.07046 0.02434,-0.104372 0.0057,-0.01695 0.01343,-0.03336 0.02454,-0.04736 0.01112,-0.014 0.02573,-0.02551 0.04263,-0.03131 0.01455,-0.005 0.03026,-0.0056 0.04561,-0.0047 0.01535,9.73e-4 0.03057,0.0035 0.04591,0.0047 0.0733,0.0055 0.148493,-0.02221 0.200519,-0.07413 0.05203,-0.05192 0.07991,-0.127169 0.07405,-0.200437 -0.0012,-0.01534 -0.0038,-0.03056 -0.0049,-0.04592 -0.001,-0.01536 -3.24e-4,-0.0311 0.0049,-0.0456 0.005,-0.01407 0.01417,-0.02648 0.02538,-0.03634 0.01122,-0.0099 0.02446,-0.01726 0.03835,-0.02274 0.02779,-0.01097 0.05786,-0.01437 0.08731,-0.01936 0.02945,-0.005 0.05944,-0.01202 0.08402,-0.02899 0.01229,-0.0085 0.02303,-0.01943 0.03029,-0.03249 0.0073,-0.01306 0.0109,-0.02828 0.0092,-0.04312 -0.0019,-0.01633 -0.0099,-0.03131 -0.01337,-0.04737 -0.0017,-0.008 -0.0023,-0.01646 -3.41e-4,-0.02444 0.002,-0.008 0.0067,-0.01549 0.01371,-0.01971 0.0069,-0.0041 0.01532,-0.0048 0.02323,-0.0037 0.0079,0.0011 0.01546,0.004 0.02303,0.0066 0.0076,0.0026 0.01534,0.0049 0.02334,0.0051 0.004,6.2e-5 0.008,-4.45e-4 0.0118,-0.0017 0.0038,-0.0013 0.0073,-0.0034 0.01012,-0.0062 0.0028,-0.0029 0.0048,-0.0064 0.006,-0.01024 0.0012,-0.0038 0.0017,-0.0078 0.0015,-0.01184 -2.51e-4,-0.008 -0.0027,-0.01574 -0.0053,-0.02329 -0.0026,-0.0076 -0.0054,-0.01512 -0.0065,-0.02305 -0.001,-0.0079 -1.28e-4,-0.0164 0.0042,-0.0231 0.0044,-0.0068 0.01211,-0.01111 0.02009,-0.0127 0.008,-0.0016 0.01627,-7e-4 0.02419,0.0012 0.01583,0.0038 0.03098,0.0115 0.04725,0.01152 0.0092,9e-6 0.01841,-0.0025 0.02654,-0.0069 0.0081,-0.0044 0.01524,-0.01056 0.02107,-0.01772 0.01167,-0.01432 0.01811,-0.03225 0.02186,-0.05034 0.0037,-0.01809 0.005,-0.03659 0.0074,-0.05489 0.0025,-0.01831 0.0062,-0.03671 0.01462,-0.05317 0.0101,-0.01981 0.02644,-0.03585 0.04438,-0.049 0.01794,-0.01315 0.0376,-0.02371 0.05668,-0.03513 0.01909,-0.01142 0.03783,-0.02388 0.05303,-0.04012 0.0152,-0.01624 0.02673,-0.03667 0.02895,-0.0588 0.0015,-0.01532 -0.0014,-0.03067 -0.0032,-0.04596 -0.0018,-0.01528 -0.0025,-0.03128 0.0032,-0.04556 0.0041,-0.01018 0.01124,-0.0189 0.01943,-0.02621 0.0082,-0.0073 0.01742,-0.01332 0.0266,-0.01933 0.0092,-0.006 0.01839,-0.01207 0.0265,-0.01947 0.0081,-0.0074 0.01512,-0.01624 0.01899,-0.02651 0.0059,-0.01565 0.004,-0.03327 -9.45e-4,-0.04925 -0.005,-0.01598 -0.01279,-0.03089 -0.01892,-0.04645 -0.0061,-0.01556 -0.01061,-0.03234 -0.0084,-0.04891 0.0011,-0.0083 0.004,-0.0164 0.0088,-0.02326 0.0048,-0.0069 0.01158,-0.0124 0.01947,-0.01518 0.0074,-0.0026 0.01545,-0.0027 0.02322,-0.0017 0.0078,0.001 0.01534,0.0032 0.02294,0.005 0.0076,0.0019 0.01536,0.0034 0.0232,0.0033 0.0078,-1.07e-4 0.01582,-0.002 0.02216,-0.0066 0.0066,-0.0048 0.01101,-0.01225 0.01303,-0.02016 0.002,-0.0079 0.0018,-0.01626 4.04e-4,-0.02431 -0.0028,-0.01609 -0.01013,-0.03107 -0.01344,-0.04706 -0.0045,-0.022 -0.0011,-0.04546 0.009,-0.06555 0.01006,-0.02009 0.02659,-0.03676 0.04627,-0.04761 0.01968,-0.01085 0.04239,-0.01592 0.06484,-0.01517 0.02246,7.46e-4 0.04462,0.0072 0.06428,0.0181 0.03933,0.02173 0.06774,0.0605 0.08186,0.103157 0.01412,0.04266 0.01479,0.08895 0.0074,0.133281 -0.01471,0.08866 -0.05992,0.16885 -0.0904,0.253397 -0.01524,0.04227 -0.0269,0.08626 -0.02885,0.13115 -0.0019,0.04489 0.0063,0.09093 0.02865,0.129893 0.0216,0.03759 0.05503,0.06674 0.08864,0.09412 0.03361,0.02738 0.06846,0.05419 0.0944,0.08892 0.02906,0.03892 0.04541,0.08585 0.05731,0.132945 0.0119,0.0471 0.01979,0.09523 0.03421,0.141619 0.0422,0.135782 0.137543,0.248546 0.240496,0.346618 0.102954,0.09807 0.216181,0.186002 0.308631,0.294032 0.09924,0.115964 0.172412,0.25268 0.274566,0.366085 0.08669,0.09623 0.192843,0.174077 0.274564,0.274564 0.06944,0.08538 0.119348,0.184811 0.183041,0.274564 0.200244,0.282172 0.525428,0.454725 0.732171,0.73217 0.106357,0.142729 0.177591,0.308343 0.274563,0.457607 0.118384,0.182222 0.275386,0.339224 0.457608,0.457607"
       id="path29"
       inkscape:path-effect="#path-effect30"
       inkscape:original-d="m 23.154893,16.290794 c 0.06101,-0.122028 0.101183,-0.256939 0.183042,-0.366085 0.205008,-0.273344 0.527163,-0.458827 0.732171,-0.732171 0.04093,-0.05457 0.05059,-0.128469 0.09152,-0.183042 0.07766,-0.103545 0.202769,-0.166871 0.274564,-0.274564 0.03784,-0.05676 0.05368,-0.126284 0.09152,-0.183043 0.117335,-0.176002 0.340271,-0.281604 0.457606,-0.457606 0.03784,-0.05676 0.04329,-0.134807 0.09152,-0.183043 0.02157,-0.02157 0.06424,0.01364 0.09152,0 0.06101,-0.03051 0.244057,-0.21355 0.274564,-0.274564 0.01364,-0.02729 -0.01364,-0.06424 0,-0.09152 0.08425,-0.168492 0.190318,-0.01455 0.274564,-0.183043 0.01364,-0.02729 -0.02157,-0.06995 0,-0.09152 0.02157,-0.02157 0.06995,0.02157 0.09152,0 0.02157,-0.02157 -0.02157,-0.06995 0,-0.09152 0.02157,-0.02157 0.06424,0.01365 0.09152,0 0.202359,-0.101179 0.0284,-0.0568 0.09152,-0.183042 0.03859,-0.07718 0.144454,-0.105865 0.183042,-0.183043 0.01364,-0.02729 -0.01364,-0.06424 0,-0.09152 0.01929,-0.03859 0.07788,-0.05059 0.09152,-0.09152 0.01929,-0.05788 -0.02729,-0.12847 0,-0.183043 0.01364,-0.02729 0.06995,0.02157 0.09152,0 0.02157,-0.02157 0,-0.122029 0,-0.09152 0,0.242586 0.02908,0.435368 0.183043,0.640649 0.05177,0.06903 0.138647,0.109052 0.183041,0.183042 0.04964,0.08272 0.04366,0.190803 0.09152,0.274564 0.229405,0.401456 0.27092,0.316074 0.549127,0.64065 0.09927,0.115813 0.175297,0.250271 0.274566,0.366085 0.08423,0.09827 0.191704,0.175132 0.274564,0.274564 0.07042,0.0845 0.114329,0.188672 0.183041,0.274564 0.209524,0.261903 0.54623,0.453259 0.732171,0.73217 0.100441,0.150661 0.174125,0.306946 0.274563,0.457607 0.111586,0.167375 0.314952,0.314951 0.457608,0.457607"
       transform="matrix(3.1454778,0,0,3.1454778,-29.594618,-29.299373)" />
  </g>
</svg>
