<?xml version="1.0" standalone="no"?>
<!DOCTYPE svg PUBLIC "-//W3C//DTD SVG 20010904//EN" "http://www.w3.org/TR/2001/REC-SVG-20010904/DTD/svg10.dtd">
<!-- Created using Krita: https://krita.org -->
<svg xmlns="http://www.w3.org/2000/svg" 
    xmlns:xlink="http://www.w3.org/1999/xlink"
    xmlns:krita="http://krita.org/namespaces/svg/krita"
    xmlns:sodipodi="http://sodipodi.sourceforge.net/DTD/sodipodi-0.dtd"
    width="192pt"
    height="84pt"
    viewBox="0 0 192 84">
<defs/>
<g id="group0" transform="matrix(1.89843397443211 0 0 1.89843397443211 18.4264685426437 18.3901104209246)" fill="none">
  <g id="group1" fill="none">
   <circle id="shape0" transform="translate(6.849, 6.23999999999998)" r="0.827" cx="0.827" cy="0.827" fill="#000000" stroke-opacity="0" stroke="#000000" stroke-width="0" stroke-linecap="square" stroke-linejoin="bevel"/>
   <path id="shape1" transform="translate(-0.00040403933140102, 3.58710792757896)" fill="#000000" stroke-opacity="0" stroke="#000000" stroke-width="0" stroke-linecap="square" stroke-linejoin="bevel" d="M21.8414 0.656892C17.8414 -0.355108 14.6434 -0.101108 10.4104 2.42789C10.3134 1.50389 7.8804 -1.26911 4.9134 0.677892C1.7514 0.286892 1.7514 3.54689 1.7514 3.54689C1.7514 3.54689 0.023404 6.58589 0.000404039 7.73089C-0.015596 8.49689 0.446404 8.70389 0.888404 8.83589C3.1734 7.53489 5.2474 7.84389 6.9324 8.09589C7.8104 8.22689 8.5714 8.33789 9.1404 8.17789C9.3374 8.12089 9.5444 8.23789 9.6004 8.43589C9.6564 8.63289 9.5404 8.83989 9.3434 8.89689C8.6194 9.09989 7.7864 8.97689 6.8224 8.83289C5.3144 8.60789 3.4724 8.34689 1.4944 9.36789C3.3724 12.6399 8.5764 13.7499 12.3564 11.1369C13.1814 11.1889 14.2634 11.3119 15.4304 11.4079C15.6454 11.4249 15.4344 12.1049 15.2254 12.7829C15.1524 13.0189 12.3624 13.6029 12.3074 13.8099C12.2064 14.1989 14.8444 13.8819 15.0324 14.1509C15.2194 14.4219 14.6924 15.6599 14.9354 16.2449C15.0974 16.6339 16.4154 16.2339 16.7844 15.3189C16.9704 14.8629 16.1914 13.9599 16.3644 13.5969C16.8844 12.5139 17.3384 11.5239 17.4194 11.5259C17.9604 11.5429 18.4994 11.5439 19.0234 11.5189C20.1154 11.4689 21.1694 11.3669 22.1454 11.2819C22.2694 11.2709 22.4774 11.7069 22.6974 12.2149C22.7974 12.4469 20.8694 12.7989 20.9684 13.0269C21.1714 13.4929 22.8654 13.1789 23.4974 13.7609C24.1304 14.3449 24.1504 15.9169 24.6164 16.0969C24.8734 16.1959 25.9504 15.4229 25.7354 14.4429C25.4214 13.0129 23.6994 11.1689 23.7894 11.1649C24.9844 11.1099 25.9774 11.1669 26.6594 11.5199C29.1894 12.8289 27.3414 22.5669 21.0164 23.0549C17.5714 23.3199 16.4204 20.5639 16.8484 19.0269C17.2714 17.5079 19.1674 16.6819 20.4824 16.8789C21.7944 17.0709 22.0384 18.2889 21.4554 19.1139C21.3784 19.2229 21.2894 19.3239 21.1944 19.4179C20.9684 19.1889 20.6564 19.0469 20.3104 19.0469C19.6234 19.0469 19.0684 19.6039 19.0684 20.2889C19.0684 20.9759 19.6244 21.5299 20.3104 21.5299C20.9304 21.5299 21.4404 21.0749 21.5334 20.4779C21.8674 20.3949 22.1974 20.2329 22.4774 19.9419C23.5954 18.7739 23.3524 16.6819 21.2334 15.9639C18.8624 15.1619 15.5394 16.6519 15.4414 19.1819C15.3444 21.7109 17.6654 24.6779 21.6624 24.4499C27.5974 24.1079 31.8664 17.9459 31.6274 12.2579C31.4214 7.43889 28.8474 2.42789 21.8414 0.656892ZM6.9224 6.12589C5.5924 6.12589 4.5144 5.04789 4.5144 3.71789C4.5144 2.38789 5.5924 1.30989 6.9224 1.30989C8.2514 1.30989 9.3294 2.38789 9.3294 3.71789C9.3304 5.04789 8.2524 6.12589 6.9224 6.12589Z" sodipodi:nodetypes="cccccccccccccccccccccccccccccccccccccccccccccccccc"/>
  </g>
 </g><text id="shape01" krita:useRichText="true" krita:textVersion="2" transform="matrix(0.999999998380146 0 0 0.999999998380146 81.7060977459853 49.8862519631626)" fill="#000000" stroke-opacity="0" stroke="#000000" stroke-width="0" stroke-linecap="square" stroke-linejoin="bevel" font-family="Inter" font-size="24" font-size-adjust="0.449946" font-stretch="normal" font-weight="900" letter-spacing="-1" word-spacing="0"><tspan x="0">Jungle</tspan><tspan x="0" dy="20.321875">Reader</tspan></text><text id="shape2" krita:useRichText="true" krita:textVersion="2" transform="translate(83.3999954378608, 29.5599987554552)" fill="#000000" stroke-opacity="0" stroke="#000000" stroke-width="0" stroke-linecap="square" stroke-linejoin="bevel" font-family="Inter" font-size="8" font-size-adjust="0.449946" font-stretch="normal" font-weight="700" letter-spacing="0" word-spacing="0"><tspan x="0">Follow on:</tspan></text><rect id="shape3" transform="translate(11.8799991657182, 16.08)" fill="none" stroke="#000000" stroke-width="1.44" stroke-linecap="square" stroke-linejoin="bevel" width="161.640000834282" height="64.08" rx="9.57866671610559" ry="9.6"/>
</svg>
