<svg xmlns="http://www.w3.org/2000/svg" viewBox="0 0 24 30" x="0px" y="0px"><g fill="#000000" stroke="none"><path d="M7.730 20.990 c-2.870 -0.080 -4.510 -1.650 -4.710 -4.500 -0.020 -0.270 -0.020 -7.630 0.000 -7.830 0.240 -2.560 2.550 -3.820 6.700 -3.640 0.140 0.010 0.300 0.010 0.350 0.010 l0.090 0.010 0.050 -0.130 c0.610 -1.530 2.310 -2.280 3.850 -1.710 0.540 0.200 1.080 0.620 1.390 1.080 0.050 0.080 0.050 0.080 0.100 0.000 0.780 -1.150 2.390 -1.600 3.670 -1.010 2.030 0.920 2.390 3.640 0.680 5.040 -0.110 0.090 -0.110 0.090 -0.070 0.150 0.280 0.400 0.190 0.980 -0.190 1.300 -0.130 0.110 -1.030 0.620 -1.560 0.890 -0.130 0.070 -0.130 0.060 -0.100 0.160 0.020 0.080 0.030 2.020 0.010 2.240 -0.080 1.040 -1.450 1.300 -1.890 0.360 -0.090 -0.190 -0.100 -0.270 -0.100 -1.130 0.000 -0.370 0.000 -0.670 -0.010 -0.670 0.000 0.000 -0.110 0.040 -0.250 0.090 -0.530 0.210 -1.170 0.420 -1.640 0.560 l-0.100 0.030 0.000 0.330 c0.000 0.500 -0.020 0.620 -0.100 0.790 -0.290 0.630 -1.110 0.780 -1.600 0.290 -0.220 -0.220 -0.300 -0.450 -0.300 -0.850 l0.000 -0.110 -0.030 0.000 c-0.170 0.040 -0.800 0.120 -1.140 0.160 -2.360 0.240 -4.400 0.030 -5.680 -0.580 -0.080 -0.040 -0.140 -0.070 -0.150 -0.070 -0.010 0.000 0.010 4.250 0.020 4.370 0.200 1.570 0.920 2.250 2.540 2.370 1.460 0.110 1.960 -0.280 1.940 -1.530 -0.020 -0.720 -0.200 -0.930 -0.860 -0.960 l-0.150 0.000 0.000 0.090 c-0.050 0.670 -0.790 1.100 -1.410 0.810 -0.430 -0.200 -0.620 -0.600 -0.560 -1.170 0.110 -1.080 0.860 -1.720 2.020 -1.720 2.000 0.000 3.120 1.320 2.940 3.440 -0.120 1.250 -0.670 2.160 -1.620 2.640 -0.600 0.310 -1.220 0.420 -2.130 0.400z m5.670 -13.020 c0.950 -0.210 1.590 -1.000 1.590 -1.970 0.000 -1.130 -0.850 -1.990 -1.980 -1.990 -1.140 -0.010 -2.000 0.850 -2.000 1.990 0.000 1.040 0.730 1.870 1.760 1.990 0.120 0.020 0.510 0.000 0.630 -0.020z m5.000 0.000 c0.950 -0.210 1.590 -1.000 1.590 -1.970 0.000 -1.130 -0.850 -1.990 -1.980 -1.990 -1.140 -0.010 -2.000 0.850 -2.000 1.990 0.000 1.040 0.730 1.870 1.760 1.990 0.120 0.020 0.510 0.000 0.630 -0.020z M12.420 6.240 c-0.580 -0.060 -0.870 -0.760 -0.490 -1.210 0.340 -0.410 0.980 -0.340 1.230 0.130 0.270 0.520 -0.150 1.130 -0.740 1.080z M18.420 6.240 c-0.580 -0.060 -0.870 -0.760 -0.490 -1.210 0.340 -0.410 0.980 -0.340 1.230 0.130 0.270 0.520 -0.150 1.130 -0.740 1.080z "/></g><text x="0" y="39" fill="#000000" font-size="5px" font-weight="bold" font-family="'Helvetica Neue', Helvetica, Arial-Unicode, Arial, Sans-serif">Created by TooJooGoo</text><text x="0" y="44" fill="#000000" font-size="5px" font-weight="bold" font-family="'Helvetica Neue', Helvetica, Arial-Unicode, Arial, Sans-serif">from the Noun Project</text></svg>