<?xml version="1.0" encoding="UTF-8"?>
<!DOCTYPE svg PUBLIC "-//W3C//DTD SVG 1.0//EN" "http://www.w3.org/TR/2001/REC-SVG-20010904/DTD/svg10.dtd">
<!-- Creator: CorelDRAW X8 -->
<svg xmlns="http://www.w3.org/2000/svg" xml:space="preserve" width="210mm" height="297mm" version="1.0" style="shape-rendering:geometricPrecision; text-rendering:geometricPrecision; image-rendering:optimizeQuality; fill-rule:evenodd; clip-rule:evenodd"
viewBox="0 0 21000 29700"
 xmlns:xlink="http://www.w3.org/1999/xlink">
 <defs>
  <style type="text/css">
   <![CDATA[
    .fil0 {fill:black}
   ]]>
  </style>
 </defs>
 <g id="Слой_x0020_1">
  <metadata id="CorelCorpID_0Corel-Layer"/>
  <path class="fil0" d="M9864 13713c12,129 35,295 75,423 41,128 99,218 165,292 65,73 137,129 180,182 44,52 59,101 63,168 5,66 -1,150 -17,133 -16,-18 -42,-135 -87,-222 -44,-86 -107,-141 -167,-178 -59,-36 -115,-55 -149,-45 -33,10 -43,48 -87,76 -43,28 -120,46 -123,36 -2,-10 69,-47 119,-87 51,-40 82,-83 87,-122 6,-39 -15,-74 -37,-151 -22,-77 -44,-195 -80,-279 -35,-85 -83,-134 -135,-166 -53,-32 -109,-46 -117,-52 -8,-7 32,-7 79,4 46,12 99,35 124,10 25,-25 23,-97 15,-166 -7,-69 -20,-136 -15,-193 4,-58 26,-107 24,-153 -2,-45 -29,-86 -74,-114 -46,-28 -111,-43 -126,-66 -14,-23 23,-54 79,-52 209,7 195,249 192,397 -2,103 -1,195 12,325zm-403 576c29,91 86,200 137,277 52,77 98,123 127,166 30,43 44,83 19,77 -24,-5 -87,-57 -150,-149 -63,-92 -126,-225 -165,-334 -92,-254 -54,-545 -43,-811 7,-151 8,-262 20,-296 12,-33 35,10 39,111 5,102 -9,261 -8,363 0,101 15,146 17,196 1,50 -10,104 -16,169 -5,65 -5,139 23,231zm-610 656c191,-58 440,-119 579,-144 140,-25 171,-15 186,12 15,27 13,71 -9,99 -22,28 -66,40 -117,66 -52,26 -111,65 -200,100 -90,34 -209,65 -331,97 -121,31 -246,63 -347,112 -102,49 -179,114 -241,135 -62,21 -108,-2 -218,-6 -111,-4 -286,11 -453,35 -167,24 -326,57 -484,102 -159,45 -317,101 -490,147 -174,46 -364,83 -469,116 -105,32 -124,61 -188,79 -63,18 -171,26 -315,61 -145,35 -327,97 -480,157 -154,60 -278,118 -330,118 -51,-1 -30,-60 25,-113 54,-54 141,-101 269,-159 127,-58 295,-128 387,-154 91,-26 106,-7 126,-11 19,-4 43,-31 102,-67 58,-37 151,-84 223,-98 73,-14 125,4 249,-5 124,-9 318,-46 510,-93 191,-47 380,-104 551,-147 170,-44 322,-74 457,-87 134,-13 251,-10 356,-12 104,-3 197,-12 172,-26 -25,-14 -168,-32 -185,-57 -17,-24 93,-55 216,-99 122,-43 257,-99 449,-158zm-22 641c51,-134 95,-226 164,-274 69,-48 161,-52 218,-68 57,-15 77,-42 120,-70 43,-29 108,-60 182,-90 74,-30 156,-60 197,-66 42,-6 42,13 60,40 18,26 55,62 70,66 15,5 8,-21 10,-49 2,-28 14,-58 42,-57 28,1 72,33 95,71 22,38 22,81 -10,113 -32,31 -96,51 -85,67 11,16 97,28 152,29 55,0 81,-11 118,-22 37,-11 86,-21 131,-48 44,-27 85,-70 103,-134 18,-64 15,-149 20,-197 5,-47 19,-57 131,-85 113,-28 325,-74 612,-115 287,-42 650,-78 874,-81 223,-2 308,30 381,23 72,-6 133,-52 191,-66 57,-14 112,5 163,2 51,-3 98,-27 138,-23 40,5 73,38 108,31 34,-7 69,-53 100,-94 30,-40 55,-73 87,-102 31,-29 69,-54 124,-55 55,0 127,24 190,29 62,5 115,-9 145,-31 29,-23 34,-54 48,-64 14,-10 37,1 59,6 23,5 45,4 61,8 15,5 24,14 36,13 13,-2 29,-15 41,-14 11,1 17,15 32,17 15,1 40,-11 56,-10 15,1 21,15 32,14 12,0 27,-14 36,-16 9,-1 12,9 16,15 3,6 9,6 16,2 8,-5 18,-15 28,-9 9,6 18,27 29,26 12,0 27,-22 43,-26 17,-3 34,13 49,14 15,0 27,-14 40,-12 13,3 27,24 44,27 17,4 38,-10 56,-5 19,6 37,30 55,34 19,4 39,-13 55,-11 17,3 30,25 44,25 14,0 29,-22 44,-22 14,0 28,23 45,24 17,2 37,-19 54,-14 18,4 34,34 53,35 19,0 42,-29 59,-34 17,-6 28,11 42,13 15,2 32,-12 45,-8 14,5 23,28 39,27 15,-1 36,-25 49,-26 13,-1 18,22 33,18 14,-4 40,-34 61,-30 22,3 40,41 62,45 22,3 48,-28 64,-30 16,-2 21,25 38,29 16,3 43,-17 57,-19 15,-1 17,16 25,21 8,5 22,-2 39,-15 16,-13 36,-32 43,-29 7,3 2,27 15,27 14,0 46,-25 68,-26 22,0 35,23 51,24 17,2 37,-20 51,-24 14,-5 22,6 29,1 8,-5 14,-27 25,-24 11,3 26,31 36,29 10,-2 15,-34 27,-37 11,-3 29,22 43,23 14,2 24,-20 34,-23 11,-4 21,10 31,6 10,-5 20,-28 35,-41 15,-14 35,-16 74,-51 40,-34 100,-99 153,-145 54,-46 102,-74 129,-119 27,-44 33,-106 22,-171 -10,-66 -36,-135 -48,-184 -12,-48 -9,-75 -21,-123 -12,-47 -39,-115 -55,-180 -16,-66 -22,-129 -40,-197 -18,-68 -48,-141 -80,-188 -31,-47 -63,-69 -88,-96 -25,-26 -43,-58 -79,-98 -35,-40 -88,-89 -121,-106 -33,-18 -47,-5 -73,-9 -26,-3 -63,-24 -120,-47 -57,-23 -132,-49 -197,-85 -64,-35 -118,-80 -216,-130 -97,-50 -239,-104 -320,-146 -80,-42 -101,-72 -145,-111 -44,-38 -111,-86 -188,-104 -77,-19 -165,-9 -217,33 -53,42 -72,115 -97,180 -26,65 -59,122 -94,155 -35,33 -72,43 -122,33 -50,-9 -113,-38 -200,-91 -87,-53 -197,-131 -257,-183 -60,-51 -70,-77 -83,-90 -12,-12 -27,-12 -44,-18 -17,-6 -36,-18 -59,-34 -24,-15 -53,-32 -81,-45 -28,-12 -56,-19 -76,-28 -20,-9 -31,-21 -55,-28 -23,-8 -59,-12 -77,-20 -18,-9 -19,-21 -38,-26 -19,-4 -55,-1 -73,-6 -18,-4 -19,-17 -51,-24 -31,-7 -94,-9 -124,-15 -29,-7 -25,-18 -54,-23 -30,-5 -92,-3 -122,-10 -30,-8 -28,-24 -61,-28 -33,-5 -102,2 -137,0 -36,-3 -38,-14 -61,-15 -23,-2 -67,7 -89,6 -22,-2 -22,-12 -60,-10 -38,2 -113,18 -148,15 -34,-3 -27,-23 -52,-24 -25,-1 -82,17 -111,19 -29,3 -31,-10 -57,-6 -27,4 -78,26 -106,31 -27,6 -30,-6 -77,0 -48,6 -140,30 -333,92 -194,62 -489,162 -746,281 -709,328 -1361,932 -1719,1632 -148,288 -311,682 -397,918 -85,236 -92,315 -165,387 -73,71 -213,135 -340,166 -127,31 -241,29 -381,52 -139,23 -304,71 -519,134 -215,63 -481,140 -629,150 -149,9 -181,-51 -274,-38 -81,11 -208,77 -375,160 -89,44 -83,54 -45,-32 13,-32 24,-61 30,-85 9,-41 2,-66 6,-98 3,-32 17,-71 45,-117 27,-46 68,-98 127,-121 58,-23 133,-16 227,-32 94,-16 206,-55 211,-76 4,-20 -99,-23 -191,-16 -93,7 -175,23 -204,17 -29,-5 -3,-33 34,-70 38,-38 88,-86 136,-142 49,-56 94,-121 136,-158 41,-38 77,-49 170,-16 262,96 405,233 698,111 111,-46 234,-122 325,-186 90,-64 147,-116 130,-128 -17,-11 -108,19 -242,4 -133,-15 -308,-75 -463,-88 -154,-14 -288,18 -394,64 -107,47 -186,107 -188,63 -2,-45 72,-195 106,-343 34,-148 27,-295 -2,-403 -28,-109 -79,-180 -108,-284 -30,-104 -39,-242 -54,-260 -15,-18 -36,82 -70,212 -52,196 -183,564 -144,756 18,92 71,165 105,227 34,61 50,112 46,164 -5,53 -30,108 -78,170 -48,61 -119,130 -188,200 -68,70 -135,141 -180,217 -46,77 -71,159 -92,155 -21,-5 -37,-96 -42,-173 -6,-77 -1,-138 -15,-172 -14,-33 -46,-37 -68,-88 -21,-50 -33,-146 -50,-166 -17,-19 -40,38 -33,148 7,110 43,272 73,378 30,105 53,153 36,232 -12,59 -47,134 -87,215 -41,84 -26,76 -110,115 -107,50 -206,95 -275,129 -141,67 -165,85 -175,114 -9,29 -5,68 -11,135 -6,68 -23,164 34,171 57,8 189,-74 367,-147 179,-73 404,-138 618,-192 214,-53 417,-94 660,-169 243,-76 527,-186 766,-257 240,-71 436,-103 576,-131 140,-29 225,-54 267,-39 43,15 45,70 28,208 -17,138 -51,360 -48,616 7,479 113,972 473,1312 306,289 742,427 1158,369 393,-54 835,-265 978,-659 196,-545 -39,-1073 -662,-1124 -406,-34 -805,104 -918,533 -45,169 -29,347 36,482 65,136 178,230 195,264 17,35 -62,11 -135,-26 -73,-38 -141,-90 -212,-162 -72,-72 -147,-165 -203,-275 -135,-270 -131,-649 -80,-941 32,-185 89,-362 140,-495zm-134 132c-44,144 -87,337 -106,503 -31,268 -5,613 128,853 78,141 206,288 321,375 215,164 529,152 774,67 140,-49 261,-131 303,-142 42,-10 4,52 -76,109 -80,57 -203,110 -338,136 -250,49 -530,12 -746,-127 -90,-58 -156,-126 -169,-155 -14,-29 26,-20 11,-56 -15,-37 -86,-119 -146,-221 -61,-102 -110,-223 -145,-327 -35,-103 -55,-189 -65,-297 -10,-108 -8,-239 7,-261 15,-23 45,63 65,22 20,-41 31,-209 68,-366 37,-157 101,-302 147,-374 46,-72 73,-71 64,-24 -8,48 -53,142 -97,285zm1440 -2347c58,-78 147,-157 250,-228 102,-71 218,-134 334,-175 116,-42 232,-63 316,-90 84,-26 134,-60 279,-103 144,-44 383,-97 601,-90 217,8 413,76 470,75 57,-1 -24,-72 52,-59 75,12 307,108 430,170 122,62 135,89 59,73 -75,-16 -239,-75 -340,-97 -100,-22 -138,-6 -184,-5 -47,0 -102,-14 -136,-17 -34,-3 -48,6 -53,39 -4,33 0,91 26,157 26,67 73,144 60,149 -12,5 -84,-61 -120,-118 -36,-57 -36,-105 -54,-148 -18,-43 -53,-81 -139,-95 -86,-13 -222,-3 -319,14 -98,17 -156,41 -176,82 -20,40 -2,98 14,170 16,72 30,159 76,245 46,86 123,172 111,181 -12,10 -114,-58 -166,-117 -52,-60 -54,-111 -72,-167 -17,-55 -51,-115 -67,-172 -16,-57 -14,-112 -64,-125 -49,-14 -148,15 -233,40 -84,24 -152,45 -164,79 -12,35 32,83 94,126 62,44 141,82 131,92 -10,9 -108,-12 -177,-47 -68,-35 -107,-84 -188,-92 -81,-9 -203,23 -307,73 -104,50 -190,117 -263,189 -73,71 -134,147 -151,146 -16,-1 11,-77 70,-155zm13 563c5,-10 81,9 152,53 72,43 139,111 188,168 148,176 146,132 370,135 99,1 215,14 251,-1 35,-14 -11,-55 -69,-103 -59,-48 -131,-103 -192,-143 -61,-40 -110,-66 -107,-74 3,-8 58,2 115,28 57,27 117,72 175,117 58,44 115,89 166,123 51,33 96,56 126,68 31,11 47,11 41,-20 -6,-31 -33,-92 -69,-145 -36,-52 -81,-94 -106,-161 -25,-67 -31,-158 -21,-159 11,-2 37,88 78,160 41,72 97,127 132,179 35,52 49,101 86,114 37,13 98,-10 126,-40 29,-30 26,-68 19,-123 -6,-56 -15,-129 -9,-141 6,-12 28,37 46,82 18,44 31,84 53,97 21,13 49,-2 65,-32 16,-30 20,-74 34,-62 14,13 40,82 70,99 31,16 68,-22 86,-78 19,-56 19,-131 51,-143 32,-13 96,36 140,39 44,3 68,-40 66,-86 -2,-45 -29,-92 -34,-136 -4,-45 14,-87 32,-70 19,17 37,94 79,166 42,72 107,139 133,185 25,45 12,68 -30,81 -41,13 -110,16 -183,37 -73,22 -151,61 -275,99 -124,38 -295,76 -449,95 -154,20 -293,21 -390,20 -97,0 -153,-2 -223,2 -70,4 -154,14 -250,43 -96,29 -204,77 -259,97 -55,19 -56,10 -24,-5 32,-16 97,-38 136,-65 40,-27 53,-61 41,-108 -13,-46 -52,-107 -96,-160 -45,-52 -95,-97 -153,-139 -58,-43 -123,-83 -118,-93zm-83 1281c7,-25 50,-75 57,-121 7,-45 -23,-86 -8,-95 15,-8 75,17 118,18 43,2 69,-19 88,-30 20,-11 33,-11 31,16 -1,26 -18,81 -42,121 -24,41 -55,68 -64,57 -8,-11 7,-61 2,-64 -4,-3 -28,40 -53,68 -25,28 -50,41 -77,48 -28,6 -59,6 -52,-18zm1307 -815c175,-6 384,-28 557,-56 173,-28 309,-62 403,-71 95,-10 147,7 166,-4 19,-10 4,-47 48,-51 44,-5 147,23 220,45 73,23 115,42 157,59 42,18 83,35 96,58 13,22 -2,49 -29,64 -28,14 -68,15 -135,15 -67,0 -160,-1 -229,8 -69,8 -112,26 -183,36 -70,10 -167,11 -271,0 -104,-12 -215,-36 -304,-31 -88,4 -153,37 -213,51 -61,13 -117,6 -187,8 -70,3 -153,14 -177,29 -24,16 11,35 -43,52 -53,16 -196,30 -334,54 -138,24 -271,59 -354,74 -83,15 -116,12 -134,-3 -17,-16 -20,-43 11,-66 30,-22 93,-39 159,-47 67,-8 136,-7 198,-15 61,-8 113,-25 120,-32 6,-7 -34,-3 -101,-1 -67,2 -161,3 -240,15 -79,12 -143,35 -184,32 -41,-4 -59,-33 -51,-49 9,-16 44,-19 94,-31 50,-12 114,-34 197,-61 84,-27 187,-61 308,-73 121,-12 261,-2 435,-9zm998 -631c-32,-192 140,-278 301,-304 222,-35 462,-10 678,-99 80,-32 112,-72 123,-111 11,-39 0,-77 2,-131 1,-54 13,-125 25,-133 12,-8 24,47 25,97 1,50 -8,96 -6,132 1,36 14,62 39,94 24,31 61,68 80,116 19,48 20,108 2,160 -18,53 -54,99 -89,126 -35,27 -68,37 -62,16 6,-21 52,-71 79,-120 27,-49 35,-97 29,-136 -6,-38 -25,-67 -46,-89 -21,-22 -44,-38 -46,-24 -2,14 18,59 22,92 4,33 -8,55 -16,44 -8,-11 -12,-54 -22,-76 -10,-23 -25,-24 -50,-10 -26,15 -63,44 -119,60 -115,31 -340,23 -473,36 -91,9 -187,23 -249,46 -63,23 -91,55 -102,93 -11,38 -4,83 -2,122 1,40 -2,74 26,116 29,42 90,91 193,158 104,67 250,151 317,197 67,46 54,53 -50,7 -105,-46 -302,-144 -425,-233 -123,-90 -172,-170 -184,-246zm1538 60c-37,-34 -62,-63 -89,-79 -28,-17 -58,-21 -56,-52 2,-30 35,-86 54,-182 19,-95 23,-230 7,-347 -17,-118 -55,-217 -70,-286 -16,-70 -9,-109 19,-51 28,58 78,212 106,346 29,134 37,247 39,337 1,89 -3,154 16,221 20,67 63,136 61,151 -3,14 -51,-25 -87,-58zm372 112c-180,-57 -206,-126 -235,-298 -12,-71 -27,-148 -23,-177 5,-28 29,-7 44,31 14,39 19,94 32,145 12,51 31,97 58,136 27,38 61,67 71,64 10,-4 -4,-40 -12,-71 -8,-31 -10,-56 0,-50 9,6 30,44 60,83 29,38 68,78 171,105 103,27 270,42 398,65 127,23 216,54 207,63 -9,9 -114,-3 -199,-11 -86,-8 -152,-11 -250,-23 -98,-12 -228,-33 -322,-62zm1096 293c57,-10 111,-30 156,-39 46,-9 83,-8 113,-2 30,5 52,13 88,5 35,-8 85,-32 131,-70 46,-37 90,-88 104,-118 14,-30 -1,-41 -34,-53 -34,-12 -86,-26 -96,-36 -11,-11 19,-16 63,-9 44,7 101,26 142,35 41,9 66,7 64,14 -2,6 -31,21 -72,60 -42,39 -96,103 -143,143 -48,41 -89,58 -115,71 -26,14 -37,23 -51,24 -14,2 -32,-6 -49,-5 -17,0 -33,9 -54,12 -21,4 -46,2 -85,1 -39,-2 -91,-3 -126,0 -36,2 -54,8 -87,6 -33,-3 -80,-15 -74,-22 7,-6 68,-6 125,-17zm-2106 -142c-8,10 -50,-45 -100,-95 -49,-49 -105,-92 -149,-128 -44,-36 -76,-65 -95,-107 -19,-41 -24,-96 -14,-97 11,-2 39,51 78,68 40,16 91,-3 156,-2 64,2 142,25 131,35 -12,10 -112,6 -178,10 -65,4 -94,16 -68,44 27,28 111,72 166,131 55,59 81,132 73,141zm235 60c-53,-40 -115,-83 -163,-131 -47,-48 -81,-101 -86,-131 -4,-30 20,-37 43,-21 23,17 43,57 93,98 51,42 131,85 178,135 47,51 60,108 46,118 -15,10 -59,-27 -111,-68zm727 -562c-43,-43 -72,-98 -104,-163 -32,-66 -67,-143 -92,-201 -25,-57 -40,-96 -27,-95 12,2 51,44 82,97 31,53 54,117 78,168 25,52 51,91 87,129 36,37 82,73 106,101 24,28 26,48 -1,43 -28,-5 -86,-36 -129,-79zm200 6c24,-10 82,-20 161,-24 79,-5 178,-4 317,12 139,15 319,45 491,82 172,36 337,80 404,92 66,13 35,-5 -69,-35 -105,-30 -281,-72 -472,-111 -190,-40 -395,-76 -549,-84 -154,-7 -259,15 -313,21 -55,6 -59,-4 -12,-21 46,-17 144,-41 231,-47 87,-5 163,7 317,33 155,25 386,62 548,98 161,35 253,69 352,105 99,36 205,75 264,104 58,30 68,51 30,51 -38,1 -124,-18 -255,-50 -131,-32 -307,-77 -494,-119 -187,-41 -385,-80 -546,-92 -161,-12 -284,1 -351,3 -67,2 -78,-8 -54,-18zm-537 -695c-8,-72 -22,-151 -16,-225 6,-74 32,-145 51,-178 18,-33 28,-28 27,-5 -2,23 -15,64 -18,134 -3,70 5,169 1,253 -5,84 -21,154 -29,156 -8,2 -9,-64 -16,-135zm1462 567c-689,140 -911,-681 -344,-879 190,-66 413,-3 544,149 70,82 115,191 131,275 16,83 4,140 -11,152 -15,12 -32,-20 -42,-74 -9,-54 -12,-130 -38,-202 -97,-264 -398,-342 -641,-227 -166,78 -207,202 -198,376 4,69 15,124 52,182 141,221 352,247 586,180 79,-23 143,-58 164,-60 21,-2 -1,29 -39,58 -38,29 -93,55 -164,70zm-436 -218c-35,-39 -54,-85 -62,-136 -7,-50 -3,-104 7,-96 10,9 25,80 53,135 55,110 165,155 282,127 56,-12 108,-42 152,-75 133,-99 170,-281 52,-403 -37,-39 -92,-75 -139,-94 -47,-19 -87,-22 -94,-29 -7,-7 20,-19 68,-11 178,29 288,135 321,313 25,134 -31,252 -142,328 -50,33 -100,45 -101,36 -1,-9 47,-38 76,-66 29,-28 39,-55 13,-45 -27,10 -89,56 -154,81 -114,45 -248,29 -332,-65zm898 54c-29,-19 -54,-47 -52,-53 3,-5 33,11 41,-10 8,-20 -7,-76 -28,-138 -20,-61 -47,-128 -58,-172 -11,-44 -8,-67 11,-34 19,32 53,120 79,195 25,76 42,139 64,178 22,39 49,52 70,72 21,20 35,46 29,47 -7,2 -34,-21 -65,-38 -30,-17 -62,-28 -91,-47zm184 -40c-8,-37 -14,-79 -16,-113 -1,-33 1,-57 10,-32 9,24 25,98 44,161 18,63 39,116 50,160 11,44 13,79 24,125 11,45 31,101 42,142 10,42 10,68 1,70 -8,2 -25,-20 -48,-32 -24,-11 -53,-11 -54,-19 -1,-8 27,-25 34,-63 7,-39 -7,-100 -20,-153 -13,-53 -26,-98 -37,-137 -12,-39 -22,-71 -30,-109zm-1223 -657c-10,-7 9,-48 43,-80 34,-32 84,-55 87,-80 3,-25 -41,-52 -80,-78 -39,-25 -73,-50 -99,-74 -27,-24 -46,-47 -48,-57 -2,-10 13,-6 49,15 36,21 92,59 163,90 71,32 158,57 218,87 60,30 95,65 76,77 -19,13 -90,3 -152,9 -63,5 -116,26 -162,49 -46,23 -85,50 -95,42zm-1138 14c-30,-6 -76,-57 -120,-106 -44,-50 -86,-96 -212,-165 -126,-68 -335,-157 -458,-195 -122,-37 -158,-24 -245,-45 -86,-21 -225,-77 -400,-110 -175,-32 -387,-41 -564,-25 -177,16 -320,57 -352,57 -31,0 49,-41 181,-75 133,-33 319,-58 495,-56 177,3 345,32 564,90 220,57 490,142 661,206 171,64 243,107 311,162 69,55 134,121 159,175 26,53 11,93 -20,87zm587 -529c34,-40 78,-58 131,-53 53,4 115,31 148,55 33,23 37,43 25,45 -11,2 -37,-14 -76,-27 -38,-14 -89,-25 -129,-19 -40,6 -70,28 -94,66 -25,38 -46,92 -52,129 -6,36 3,56 -9,78 -12,22 -45,47 -77,77 -32,29 -63,62 -65,50 -2,-12 25,-68 49,-115 24,-48 45,-85 67,-135 23,-50 47,-112 82,-151zm-5132 2245c6,75 33,164 32,187 -1,22 -31,-23 -51,-79 -21,-56 -32,-123 -47,-120 -15,3 -33,76 -37,141 -4,65 6,122 20,176 15,54 33,104 30,124 -3,19 -27,8 -50,-32 -23,-40 -44,-109 -56,-171 -11,-62 -12,-116 -24,-128 -11,-12 -33,18 -40,78 -8,59 -1,148 -7,170 -7,23 -26,-19 -33,-80 -8,-61 -3,-142 8,-197 12,-56 30,-86 45,-89 16,-2 28,24 49,20 21,-4 49,-38 70,-69 20,-31 33,-58 51,-79 19,-20 43,-34 47,-11 4,24 -12,84 -7,159zm1890 -2181c-31,22 -126,56 -241,106 -116,50 -252,115 -326,162 -74,47 -85,75 -154,119 -70,44 -197,104 -306,172 -109,68 -201,145 -212,140 -10,-5 59,-90 193,-197 133,-106 330,-233 509,-327 179,-94 340,-154 437,-180 98,-26 131,-17 100,5zm-2120 1680c5,26 52,8 93,3 41,-5 77,5 56,18 -21,14 -97,32 -158,78 -60,45 -105,117 -162,246 -56,129 -125,316 -169,447 -44,131 -64,206 -60,238 4,32 32,21 68,24 36,4 81,22 70,35 -10,12 -75,19 -122,31 -46,12 -73,29 -80,13 -7,-17 7,-67 28,-159 21,-91 50,-224 108,-396 58,-172 146,-384 249,-582 103,-199 221,-384 278,-456 56,-71 52,-29 20,39 -31,67 -89,160 -137,242 -48,81 -86,152 -82,179zm643 2506c199,-69 426,-73 631,-28 97,21 195,51 277,114 81,64 145,161 187,258 91,211 55,454 -27,663 -37,94 -75,139 -71,97 4,-42 50,-173 68,-300 19,-128 10,-253 -21,-347 -31,-93 -84,-156 -108,-199 -24,-43 -19,-66 -64,-105 -46,-39 -141,-94 -260,-123 -120,-29 -264,-32 -381,-20 -116,13 -206,41 -277,72 -72,30 -126,63 -148,68 -22,5 -11,-17 21,-48 31,-31 84,-71 173,-102zm271 181c100,-18 183,3 258,35 75,32 142,76 189,127 47,52 73,112 89,155 16,44 20,71 16,106 -4,35 -17,77 -24,79 -7,2 -8,-37 -20,-77 -13,-39 -37,-79 -70,-124 -33,-44 -73,-93 -133,-123 -122,-63 -328,-52 -448,12 -196,104 -265,446 -11,524 67,21 148,24 200,7 52,-17 75,-55 80,-92 5,-37 -8,-74 -29,-86 -21,-11 -50,2 -80,10 -30,8 -62,12 -88,-3 -26,-15 -46,-48 -42,-84 5,-37 35,-76 88,-99 176,-75 351,47 306,231 -47,190 -369,229 -518,144 -134,-76 -184,-235 -168,-382 10,-81 42,-158 116,-223 74,-66 190,-120 289,-137zm5990 -3044c10,-14 37,-28 65,-40 29,-11 60,-18 90,-9 30,10 59,36 76,67 18,31 24,66 34,97 10,30 25,55 13,57 -12,2 -52,-20 -84,-23 -33,-4 -58,12 -89,19 -31,6 -68,4 -72,-8 -4,-12 26,-33 52,-54 26,-21 48,-42 33,-54 -14,-12 -66,-14 -95,-21 -29,-7 -34,-18 -23,-31zm-771 -442c-19,-37 -24,-76 -19,-100 5,-24 19,-34 38,-9 18,25 39,86 74,116 36,30 87,30 87,41 1,11 -49,34 -89,29 -41,-6 -73,-40 -91,-77zm52 -181c-13,-8 -14,-28 17,-37 30,-9 94,-7 141,16 47,22 77,65 84,104 7,38 -10,73 -22,64 -13,-8 -22,-60 -48,-91 -26,-32 -70,-43 -104,-47 -33,-4 -56,-1 -68,-9z"/>
 </g>
</svg>
